<?xml version="1.0" encoding="UTF-8"?>
<svg id="Layer_1" data-name="Layer 1" xmlns="http://www.w3.org/2000/svg" viewBox="0 0 1143.43 304.71">
  <defs>
    <style>
      .cls-1 {
        fill: #ff0068;
      }
    </style>
  </defs>
  <path class="cls-1" d="M395.35,133.42c-3.53-3.13-7.31-5.9-11.35-8.34-1.62-1-4.25-2.47-7.88-4.39-3.63-1.92-8.28-3.68-13.94-5.3-5.64-1.62-12.32-2.42-19.99-2.42-6.05,0-12.42.94-19.11,2.8-.03.02-.05.02-.06.02-1.36.39-2.74.82-4.13,1.27-8.1,2.21-15.66,5.69-22.44,10.2-11.67,7.78-20.85,19.19-26.86,32.05-.91,1.94-2.92,3.12-5.05,2.92-19.82-1.79-25.39-13.47-26.97-19.72-.42-1.71.58-3.47,2.25-4,7.14-2.27,8.26-1.66,17.45-2.88,5.69-.76,11.21-3,15.97-6.19,2.47-1.66,4.39-2.94,6.13-5.42,2.22-3.16,4.98-9.49,2.32-13.97-2.86-4.78-10.29-4.72-12.98-4.69-13.53.11-23.4,11.23-27,15.3-4.19,4.75-6.81,9.36-8.38,12.56l-3.29-5.04s-2.91-4.39-5.46-7.64c-1.2-1.51-12-15.21-26.57-14.94-2.45.05-9.72.24-12.67,5.08-2.65,4.34-.76,10.23,1.51,13.57,1.42,2.07,2.91,4.21,6.19,6.33,5.33,3.44,9.97,5.18,16.09,5.99,8.9,1.18,9.85-.09,17.27.82,1.89.23,3.07,1.92,2.62,3.78-1.54,6.34-7.17,18.58-27.18,20.4-1.88.17-3.66-.83-4.46-2.54-6.08-12.88-15.89-23.38-27.66-31.24-12.29-8.17-26.76-13.51-42.62-13.51-21.4,0-41.28,8.31-55.31,22.32-14.01,14.03-22.38,33.91-22.38,55.31s9.13,40.53,23.14,54.56c14.03,14.03,33.16,22.61,54.56,22.61s41.06-8.05,55.09-22.08c14.03-14.01,22.65-33.69,22.65-55.09,0-3.12-.53-6.59-1.05-9.81-.25-1.57.68-3.09,2.19-3.58,15.43-5.03,23.34-11.89,27.11-19.11,3.75,7.22,11.21,14.98,26.54,20.16,1.73.58,2.85,2.19,2.78,4.01-.09,2.72.17,5.42.17,8.34,0,21.4,8.69,40.15,22.72,54.16,13.06,13.08,30.25,22.44,49.85,23.64.3.05.59.08.89.11,2.3.24,4.56.36,6.78.36,8.08,0,15.04-.91,20.9-2.72,5.86-1.82,10.56-3.69,14.09-5.61,3.54-1.91,5.61-3.07,6.22-3.48,5.86-3.63,10.2-7.42,13.03-11.37,1.74-2.45,2.86-5.01,3.31-7.7.12-.67.2-1.35.23-2.03.08-.98.05-1.98-.06-3-.51-4.54-2.88-9.43-7.13-14.68-4.43-5.66-8.47-9.75-12.11-12.27-3.47-2.41-6.83-3.65-10.09-3.75-.17-.03-.35-.03-.51-.03-2.63,0-5.21.7-7.73,2.12-2.53,1.41-5.19,2.92-8.02,4.54-.21,0-.82.35-1.82,1.06-1.01.71-2.48,1.36-4.4,1.97-1.68.53-3.69.83-6.07.89h-.17c-3.69-.06-7.13-1.06-10.35-3.01-3.33-2.01-6.01-4.74-8.02-8.19-2.03-3.42-3.03-7.26-3.03-11.5s1-8.04,3.03-11.37c2.01-3.33,4.74-6.01,8.17-8.04,3.27-1.92,6.81-2.92,10.64-3.01,3.12.06,5.77.62,7.93,1.65,2.32,1.12,4.48,2.38,6.51,3.8,2.01,1.41,4.24,2.68,6.66,3.78,2.44,1.1,5.25,1.66,8.49,1.66.23,0,.45,0,.68-.02,7.04-.33,14.09-5.89,21.13-16.65,2.22-3.44,3.84-6.51,4.86-9.25.92-2.51,1.42-4.98,1.5-7.4.02-.21.02-.41.02-.62,0-.36-.02-.73-.03-1.09-.23-4.75-1.98-8.58-5.28-11.49Z"/>
  <path class="cls-1" d="M536.69,125.23c-10.29-6.76-21.91-10.14-34.84-10.14-6.87,0-12.88,1.47-18.02,4.39-5.15,2.94-9.25,5.81-12.27,8.64v-55.15c0-4.65-.41-9.03-1.21-13.18-.8-4.13-3.07-7.57-6.81-10.29-3.74-2.74-10.15-4.1-19.25-4.1s-15.54,1.32-19.39,3.95c-3.83,2.62-6.16,6.01-6.96,10.14-.82,4.15-1.21,8.54-1.21,13.18v168.45c0,4.45.35,8.79,1.06,13.03.7,4.24,2.98,7.72,6.81,10.44,3.84,2.74,10.31,4.1,19.39,4.1s15.81-1.32,19.55-3.95c3.74-2.62,6.01-6.05,6.81-10.29.8-4.24,1.21-8.58,1.21-13.03v-54.54c.8-4.43,3.54-8.37,8.19-11.8,4.65-3.44,9.69-5.16,15.15-5.16,4.24,0,7.87.91,10.9,2.74,3.04,1.82,5.36,4.28,6.98,7.42,1.62,3.13,2.42,6.92,2.42,11.37v49.38c0,4.84.41,9.4,1.21,13.64s3.18,7.67,7.13,10.29c3.93,2.63,10.34,3.95,19.23,3.95s15.8-1.36,19.54-4.1c3.74-2.72,6.01-6.16,6.81-10.29.82-4.15,1.23-8.43,1.23-12.88v-49.68c0-14.54-3.04-27.57-9.1-39.09s-14.24-20.64-24.55-27.42Z"/>
  <path class="cls-1" d="M730.44,118.87c-3.74-2.72-10.15-4.09-19.25-4.09s-15.8,1.41-20.14,4.24c-3.27,2.12-5.25,4.87-5.93,8.26-.82-.77-1.77-1.62-2.84-2.51-2.94-2.42-6.78-4.63-11.52-6.66-4.75-2.01-10.56-3.03-17.42-3.03-9.1,0-17.78,2.07-26.06,6.2-8.28,4.15-15.75,9.81-22.41,16.96-6.67,7.17-11.93,15.3-15.75,24.39-3.84,9.08-5.77,18.58-5.77,28.48s1.92,19.73,5.77,28.94c3.83,9.19,9.03,17.42,15.6,24.68,6.55,7.28,14.03,12.98,22.41,17.12,8.38,4.15,17.12,6.22,26.21,6.22,7.07,0,13.03-.97,17.87-2.89,4.84-1.91,8.73-4.03,11.67-6.36.82-.65,1.57-1.27,2.24-1.85.88,2.36,2.75,4.54,5.63,6.54,4.34,3.04,11.06,4.56,20.14,4.56s15.81-1.32,19.55-3.95c3.74-2.62,6.01-6.05,6.81-10.29.8-4.25,1.21-8.58,1.21-13.03v-98.46c0-4.45-.41-8.79-1.21-13.03-.8-4.25-3.07-7.73-6.81-10.46ZM678.92,202.18c-1.92,3.34-4.43,6.02-7.57,8.04-3.13,2.01-6.61,3.03-10.46,3.03-4.04,0-7.78-1.01-11.21-3.03-3.44-2.01-6.2-4.65-8.32-7.88-2.12-3.22-3.18-6.76-3.18-10.59,0-4.04,1-7.73,3.03-11.06,2.01-3.33,4.69-6.01,8.02-8.02,3.34-2.03,7.02-3.04,11.06-3.04s7.67,1.01,10.91,3.04c3.22,2.01,5.8,4.65,7.72,7.87,1.92,3.24,2.89,6.87,2.89,10.91,0,3.83-.97,7.42-2.89,10.74Z"/>
  <path class="cls-1" d="M866.16,119.03c-2.72-1.62-5.66-2.83-8.78-3.63-3.13-.8-6.07-1.36-8.79-1.66-2.72-.3-4.99-.45-6.81-.45-5.46,0-10.35.91-14.69,2.72-4.34,1.82-8.08,3.93-11.21,6.36-1.86,1.44-3.75,3.1-5.66,4.99-.08-.29-.15-.59-.24-.89-.82-2.94-3.09-5.61-6.83-8.04-3.74-2.42-10.05-3.63-18.93-3.63s-15.56,1.32-19.39,3.93c-3.84,2.63-6.17,6.01-6.98,10.15-.8,4.13-1.21,8.54-1.21,13.18v98.76c0,4.45.35,8.84,1.06,13.18.71,4.34,2.98,7.87,6.83,10.59,3.83,2.74,10.29,4.1,19.39,4.1s15.86-1.32,19.69-3.95c3.84-2.62,6.16-6.05,6.98-10.29.8-4.24,1.21-8.58,1.21-13.03v-59.08c0-2.22.5-4.28,1.51-6.2,1-1.92,2.47-3.59,4.39-5.01,1.92-1.41,4.15-2.47,6.67-3.18,2.51-.7,5.3-1.06,8.32-1.06,2.42,0,4.09.26,4.99.76.91.51,1.73,1.01,2.44,1.51.7.51,1.86,1.01,3.48,1.51,1.6.51,4.34.76,8.17.76,7.07,0,12.77-3.53,17.12-10.59,4.34-7.07,6.52-15.65,6.52-25.76,0-3.83-.86-7.07-2.57-9.7-1.73-2.62-3.95-4.74-6.67-6.36Z"/>
  <path class="cls-1" d="M935.85,119.18c-3.75-2.72-10.15-4.09-19.25-4.09s-15.56,1.36-19.39,4.09c-3.84,2.72-6.16,6.16-6.96,10.31-.82,4.13-1.21,8.43-1.21,12.88v98.76c0,4.45.35,8.79,1.06,13.03.7,4.24,2.97,7.72,6.81,10.44,3.83,2.74,10.31,4.1,19.39,4.1s15.8-1.32,19.55-3.95c3.72-2.62,5.99-6.05,6.81-10.29.8-4.24,1.21-8.58,1.21-13.03v-98.46c0-4.65-.41-9.1-1.21-13.33-.82-4.25-3.09-7.73-6.81-10.46Z"/>
  <path class="cls-1" d="M1084.14,196.89c-2.83-5.64-6.57-10.09-11.21-13.33-4.65-3.22-9.75-5.71-15.3-7.42-5.55-1.71-10.96-2.98-16.21-3.78-3.83-.62-7.42-1.23-10.74-1.83-3.34-.61-6.27-1.3-8.79-2.12-2.53-.8-4.54-1.86-6.05-3.18s-2.29-3.07-2.29-5.3c0-1.21.41-2.27,1.23-3.18.8-.92,2.06-1.62,3.78-2.13,1.71-.5,3.78-.76,6.2-.76,4.24,0,8.49.91,12.73,2.72,4.24,1.83,8.28,3.65,12.12,5.46,3.83,1.82,7.37,2.72,10.59,2.72,2.63,0,5.21-.95,7.73-2.88,2.53-1.92,4.99-4.8,7.42-8.64,4.45-6.25,6.57-12.27,6.37-18.02-.21-5.75-4.04-10.25-11.52-13.48-3.63-1.6-7.22-3.07-10.76-4.39-3.53-1.32-7.07-2.38-10.59-3.18-3.54-.8-7.02-1.41-10.46-1.82s-6.87-.61-10.31-.61c-13.92,0-25.65,1.82-35.14,5.45-9.49,3.63-16.66,8.99-21.5,16.06-4.86,7.07-7.28,15.86-7.28,26.36,0,7.87,1.06,14.54,3.18,19.99,2.13,5.45,4.95,10.11,8.49,13.94,3.53,3.84,7.52,6.92,11.97,9.23,4.43,2.33,8.99,4.21,13.64,5.61,3.63,1.21,7.16,2.22,10.59,3.03,3.44.8,6.67,1.51,9.7,2.12,3.03.61,5.71,1.27,8.02,1.97,2.33.71,4.15,1.57,5.46,2.57,1.32,1.01,1.97,2.33,1.97,3.95s-.95,2.83-2.88,3.63c-1.92.8-4.8,1.21-8.64,1.21-4.24,0-8.23-.76-11.96-2.27-3.75-1.51-7.32-3.22-10.76-5.15-3.44-1.92-6.87-3.65-10.31-5.16-3.44-1.51-6.96-2.27-10.61-2.27-2.62,0-4.89.51-6.81,1.51-1.92,1.01-3.59,2.53-4.99,4.54-2.42,3.45-4.45,6.67-6.07,9.7s-2.88,5.81-3.78,8.34c-.91,2.53-1.36,4.8-1.36,6.81,0,4.45,2.12,8.38,6.36,11.82,4.25,3.44,9.66,6.42,16.21,8.93,6.57,2.53,13.33,4.45,20.31,5.77,6.96,1.3,13.27,1.97,18.93,1.97,22.22,0,39.03-4.45,50.44-13.33,11.41-8.88,17.12-21.91,17.12-39.07,0-9.1-1.41-16.47-4.24-22.12Z"/>
  <path class="cls-1" d="M299.26,103.52c3.44,2.01,7.17,3.03,11.21,3.03s7.32-1.01,10.46-3.03c3.13-2.01,5.64-4.69,7.57-8.04,1.92-3.33,2.89-6.92,2.89-10.74,0-4.04-.97-7.67-2.89-10.91-1.92-3.22-4.49-5.86-7.72-7.87-3.24-2.03-6.87-3.04-10.91-3.04s-7.72,1.01-11.06,3.04c-3.33,2.01-6.01,4.69-8.02,8.02-2.03,3.33-3.03,7.02-3.03,11.06,0,3.83,1.06,7.37,3.18,10.59,2.12,3.24,4.89,5.87,8.32,7.88Z"/>
  <path class="cls-1" d="M146.84,103.52c3.44,2.01,7.17,3.03,11.21,3.03s7.32-1.01,10.46-3.03c3.13-2.01,5.64-4.69,7.57-8.04,1.92-3.33,2.89-6.92,2.89-10.74,0-4.04-.97-7.67-2.89-10.91-1.92-3.22-4.49-5.86-7.72-7.87-3.24-2.03-6.87-3.04-10.91-3.04s-7.72,1.01-11.06,3.04c-3.33,2.01-6.01,4.69-8.02,8.02-2.03,3.33-3.03,7.02-3.03,11.06,0,3.83,1.06,7.37,3.18,10.59,2.12,3.24,4.89,5.87,8.32,7.88Z"/>
  <path class="cls-1" d="M904.45,99.64c3.44,2.01,7.17,3.03,11.21,3.03s7.32-1.01,10.46-3.03c3.13-2.01,5.64-4.69,7.57-8.04,1.92-3.33,2.89-6.92,2.89-10.74,0-4.04-.97-7.67-2.89-10.91-1.92-3.22-4.49-5.86-7.72-7.87-3.24-2.03-6.87-3.04-10.91-3.04s-7.72,1.01-11.06,3.04c-3.33,2.01-6.01,4.69-8.02,8.02-2.03,3.33-3.03,7.02-3.03,11.06,0,3.83,1.06,7.37,3.18,10.59,2.12,3.24,4.89,5.87,8.32,7.88Z"/>
</svg>