<?xml version="1.0" encoding="UTF-8"?>
<svg id="Layer_1" data-name="Layer 1" xmlns="http://www.w3.org/2000/svg" viewBox="0 0 426.68 304.71">
  <defs>
    <style>
      .cls-1 {
        fill: #ff0068;
      }
    </style>
  </defs>
  <path class="cls-1" d="M371.95,121.84c-3.53-3.13-7.31-5.9-11.35-8.34-1.62-1-4.25-2.47-7.88-4.39-3.63-1.92-8.28-3.68-13.94-5.3-5.64-1.62-12.32-2.42-19.99-2.42-6.05,0-12.42.94-19.11,2.8-.03.02-.05.02-.06.02-1.36.39-2.74.82-4.13,1.27-8.1,2.21-15.66,5.69-22.44,10.2-11.67,7.78-20.85,19.19-26.86,32.05-.91,1.94-2.92,3.12-5.05,2.92-19.82-1.79-25.39-13.47-26.97-19.72-.42-1.71.58-3.47,2.25-4,7.14-2.27,8.26-1.66,17.45-2.88,5.69-.76,11.21-3,15.97-6.19,2.47-1.66,4.39-2.94,6.13-5.42,2.22-3.16,4.98-9.49,2.32-13.97-2.86-4.78-10.29-4.72-12.98-4.69-13.53.11-23.4,11.23-27,15.3-4.19,4.75-6.81,9.36-8.38,12.56l-3.29-5.04s-2.91-4.39-5.46-7.64c-1.2-1.51-12-15.21-26.57-14.94-2.45.05-9.72.24-12.67,5.08-2.65,4.34-.76,10.23,1.51,13.57,1.42,2.07,2.91,4.21,6.19,6.33,5.33,3.44,9.97,5.18,16.09,5.99,8.9,1.18,9.85-.09,17.27.82,1.89.23,3.07,1.92,2.62,3.78-1.54,6.34-7.17,18.58-27.18,20.4-1.88.17-3.66-.83-4.46-2.54-6.08-12.88-15.89-23.38-27.66-31.24-12.29-8.17-26.76-13.51-42.62-13.51-21.4,0-41.28,8.31-55.31,22.32-14.01,14.03-22.38,33.91-22.38,55.31s9.13,40.53,23.14,54.56c14.03,14.03,33.16,22.61,54.56,22.61s41.06-8.05,55.09-22.08c14.03-14.01,22.65-33.69,22.65-55.09,0-3.12-.53-6.59-1.05-9.81-.25-1.57.68-3.09,2.19-3.58,15.43-5.03,23.34-11.89,27.11-19.11,3.75,7.22,11.21,14.98,26.54,20.16,1.73.58,2.85,2.19,2.78,4.01-.09,2.72.17,5.42.17,8.34,0,21.4,8.69,40.15,22.72,54.16,13.06,13.08,30.25,22.44,49.85,23.64.3.05.59.08.89.11,2.3.24,4.56.36,6.78.36,8.08,0,15.04-.91,20.9-2.72,5.86-1.82,10.56-3.69,14.09-5.61,3.54-1.91,5.61-3.07,6.22-3.48,5.86-3.63,10.2-7.42,13.03-11.37,1.74-2.45,2.86-5.01,3.31-7.7.12-.67.2-1.35.23-2.03.08-.98.05-1.98-.06-3-.51-4.54-2.88-9.43-7.13-14.68-4.43-5.66-8.47-9.75-12.11-12.27-3.47-2.41-6.83-3.65-10.09-3.75-.17-.03-.35-.03-.51-.03-2.63,0-5.21.7-7.73,2.12-2.53,1.41-5.19,2.92-8.02,4.54-.21,0-.82.35-1.82,1.06-1.01.71-2.48,1.36-4.4,1.97-1.68.53-3.69.83-6.07.89h-.17c-3.69-.06-7.13-1.06-10.35-3.01-3.33-2.01-6.01-4.74-8.02-8.19-2.03-3.42-3.03-7.26-3.03-11.5s1-8.04,3.03-11.37c2.01-3.33,4.74-6.01,8.17-8.04,3.27-1.92,6.81-2.92,10.64-3.01,3.12.06,5.77.62,7.93,1.65,2.32,1.12,4.48,2.38,6.51,3.8,2.01,1.41,4.24,2.68,6.66,3.78,2.44,1.1,5.25,1.66,8.49,1.66.23,0,.45,0,.68-.02,7.04-.33,14.09-5.89,21.13-16.65,2.22-3.44,3.84-6.51,4.86-9.25.92-2.51,1.42-4.98,1.5-7.4.02-.21.02-.41.02-.62,0-.36-.02-.73-.03-1.09-.23-4.75-1.98-8.58-5.28-11.49Z"/>
  <path class="cls-1" d="M275.86,91.94c3.44,2.01,7.17,3.03,11.21,3.03s7.32-1.01,10.46-3.03c3.13-2.01,5.64-4.69,7.57-8.04,1.92-3.33,2.89-6.92,2.89-10.74,0-4.04-.97-7.67-2.89-10.91-1.92-3.22-4.49-5.86-7.72-7.87-3.24-2.03-6.87-3.04-10.91-3.04s-7.72,1.01-11.06,3.04c-3.33,2.01-6.01,4.69-8.02,8.02-2.03,3.33-3.03,7.02-3.03,11.06,0,3.83,1.06,7.37,3.18,10.59,2.12,3.24,4.89,5.87,8.32,7.88Z"/>
  <path class="cls-1" d="M123.44,91.94c3.44,2.01,7.17,3.03,11.21,3.03s7.32-1.01,10.46-3.03c3.13-2.01,5.64-4.69,7.57-8.04,1.92-3.33,2.89-6.92,2.89-10.74,0-4.04-.97-7.67-2.89-10.91-1.92-3.22-4.49-5.86-7.72-7.87-3.24-2.03-6.87-3.04-10.91-3.04s-7.72,1.01-11.06,3.04c-3.33,2.01-6.01,4.69-8.02,8.02-2.03,3.33-3.03,7.02-3.03,11.06,0,3.83,1.06,7.37,3.18,10.59,2.12,3.24,4.89,5.87,8.32,7.88Z"/>
</svg>