<?xml version="1.0" encoding="UTF-8"?>
<svg id="Layer_1" data-name="Layer 1" xmlns="http://www.w3.org/2000/svg" viewBox="0 0 792 612">
  <defs>
    <style>
      .cls-1 {
        fill: #ff0068;
      }
    </style>
  </defs>
  <path class="cls-1" d="M279,281.5c-2.33-2.07-4.83-3.9-7.5-5.51-1.07-.66-2.81-1.63-5.21-2.9-2.4-1.27-5.47-2.43-9.21-3.5-3.73-1.07-8.14-1.6-13.21-1.6-4,0-8.21.62-12.63,1.85-.02.01-.03.01-.04.01-.9.26-1.81.54-2.73.84-5.35,1.46-10.35,3.76-14.83,6.74-7.71,5.14-13.78,12.68-17.75,21.18-.6,1.28-1.93,2.06-3.34,1.93-13.1-1.18-16.78-8.9-17.82-13.03-.28-1.13.38-2.29,1.49-2.64,4.72-1.5,5.46-1.1,11.53-1.9,3.76-.5,7.41-1.98,10.55-4.09,1.63-1.1,2.9-1.94,4.05-3.58,1.47-2.09,3.29-6.27,1.53-9.23-1.89-3.16-6.8-3.12-8.58-3.1-8.94.07-15.46,7.42-17.84,10.11-2.77,3.14-4.5,6.19-5.54,8.3l-2.17-3.33s-1.92-2.9-3.61-5.05c-.79-1-7.93-10.05-17.56-9.87-1.62.03-6.42.16-8.37,3.36-1.75,2.87-.5,6.76,1,8.97.94,1.37,1.92,2.78,4.09,4.18,3.52,2.27,6.59,3.42,10.63,3.96,5.88.78,6.51-.06,11.41.54,1.25.15,2.03,1.27,1.73,2.5-1.02,4.19-4.74,12.28-17.96,13.48-1.24.11-2.42-.55-2.95-1.68-4.02-8.51-10.5-15.45-18.28-20.64-8.12-5.4-17.68-8.93-28.16-8.93-14.14,0-27.28,5.49-36.55,14.75-9.26,9.27-14.79,22.41-14.79,36.55s6.03,26.78,15.29,36.05c9.27,9.27,21.91,14.94,36.05,14.94s27.13-5.32,36.4-14.59c9.27-9.26,14.97-22.26,14.97-36.4,0-2.06-.35-4.35-.69-6.48-.17-1.04.45-2.04,1.45-2.37,10.2-3.32,15.42-7.85,17.91-12.63,2.48,4.77,7.41,9.9,17.54,13.32,1.14.38,1.88,1.45,1.84,2.65-.06,1.8.11,3.58.11,5.51,0,14.14,5.74,26.53,15.01,35.79,8.63,8.64,19.99,14.83,32.94,15.62.2.03.39.05.59.07,1.52.16,3.01.24,4.48.24,5.34,0,9.94-.6,13.81-1.8,3.87-1.2,6.98-2.44,9.31-3.71,2.34-1.26,3.71-2.03,4.11-2.3,3.87-2.4,6.74-4.9,8.61-7.51,1.15-1.62,1.89-3.31,2.19-5.09.08-.44.13-.89.15-1.34.05-.65.03-1.31-.04-1.98-.34-3-1.9-6.23-4.71-9.7-2.93-3.74-5.6-6.44-8-8.11-2.29-1.59-4.51-2.41-6.67-2.48-.11-.02-.23-.02-.34-.02-1.74,0-3.44.46-5.11,1.4-1.67.93-3.43,1.93-5.3,3-.14,0-.54.23-1.2.7-.67.47-1.64.9-2.91,1.3-1.11.35-2.44.55-4.01.59h-.11c-2.44-.04-4.71-.7-6.84-1.99-2.2-1.33-3.97-3.13-5.3-5.41-1.34-2.26-2-4.8-2-7.6s.66-5.31,2-7.51c1.33-2.2,3.13-3.97,5.4-5.31,2.16-1.27,4.5-1.93,7.03-1.99,2.06.04,3.81.41,5.24,1.09,1.53.74,2.96,1.57,4.3,2.51,1.33.93,2.8,1.77,4.4,2.5,1.61.73,3.47,1.1,5.61,1.1.15,0,.3,0,.45-.01,4.65-.22,9.31-3.89,13.96-11,1.47-2.27,2.54-4.3,3.21-6.11.61-1.66.94-3.29.99-4.89.01-.14.01-.27.01-.41,0-.24-.01-.48-.02-.72-.15-3.14-1.31-5.67-3.49-7.59Z"/>
  <path class="cls-1" d="M372.39,276.09c-6.8-4.47-14.48-6.7-23.02-6.7-4.54,0-8.51.97-11.91,2.9-3.4,1.94-6.11,3.84-8.11,5.71v-36.44c0-3.07-.27-5.97-.8-8.71-.53-2.73-2.03-5-4.5-6.8-2.47-1.81-6.71-2.71-12.72-2.71s-10.27.87-12.81,2.61c-2.53,1.73-4.07,3.97-4.6,6.7-.54,2.74-.8,5.64-.8,8.71v111.31c0,2.94.23,5.81.7,8.61.46,2.8,1.97,5.1,4.5,6.9,2.54,1.81,6.81,2.71,12.81,2.71s10.45-.87,12.92-2.61c2.47-1.73,3.97-4,4.5-6.8.53-2.8.8-5.67.8-8.61v-36.04c.53-2.93,2.34-5.53,5.41-7.8,3.07-2.27,6.4-3.41,10.01-3.41,2.8,0,5.2.6,7.2,1.81,2.01,1.2,3.54,2.83,4.61,4.9,1.07,2.07,1.6,4.57,1.6,7.51v32.63c0,3.2.27,6.21.8,9.01s2.1,5.07,4.71,6.8c2.6,1.74,6.83,2.61,12.71,2.61s10.44-.9,12.91-2.71c2.47-1.8,3.97-4.07,4.5-6.8.54-2.74.81-5.57.81-8.51v-32.83c0-9.61-2.01-18.22-6.01-25.83s-9.41-13.64-16.22-18.12Z"/>
  <path class="cls-1" d="M500.42,271.89c-2.47-1.8-6.71-2.7-12.72-2.7s-10.44.93-13.31,2.8c-2.16,1.4-3.47,3.22-3.92,5.46-.54-.51-1.17-1.07-1.88-1.66-1.94-1.6-4.48-3.06-7.61-4.4-3.14-1.33-6.98-2-11.51-2-6.01,0-11.75,1.37-17.22,4.1-5.47,2.74-10.41,6.48-14.81,11.21-4.41,4.74-7.88,10.11-10.41,16.12-2.54,6-3.81,12.28-3.81,18.82s1.27,13.04,3.81,19.12c2.53,6.07,5.97,11.51,10.31,16.31,4.33,4.81,9.27,8.58,14.81,11.31,5.54,2.74,11.31,4.11,17.32,4.11,4.67,0,8.61-.64,11.81-1.91,3.2-1.26,5.77-2.66,7.71-4.2.54-.43,1.04-.84,1.48-1.22.58,1.56,1.82,3,3.72,4.32,2.87,2.01,7.31,3.01,13.31,3.01s10.45-.87,12.92-2.61c2.47-1.73,3.97-4,4.5-6.8.53-2.81.8-5.67.8-8.61v-65.06c0-2.94-.27-5.81-.8-8.61-.53-2.81-2.03-5.11-4.5-6.91ZM466.38,326.94c-1.27,2.21-2.93,3.98-5,5.31-2.07,1.33-4.37,2-6.91,2-2.67,0-5.14-.67-7.41-2-2.27-1.33-4.1-3.07-5.5-5.21-1.4-2.13-2.1-4.47-2.1-7,0-2.67.66-5.11,2-7.31,1.33-2.2,3.1-3.97,5.3-5.3,2.21-1.34,4.64-2.01,7.31-2.01s5.07.67,7.21,2.01c2.13,1.33,3.83,3.07,5.1,5.2,1.27,2.14,1.91,4.54,1.91,7.21,0,2.53-.64,4.9-1.91,7.1Z"/>
  <path class="cls-1" d="M590.1,271.99c-1.8-1.07-3.74-1.87-5.8-2.4-2.07-.53-4.01-.9-5.81-1.1-1.8-.2-3.3-.3-4.5-.3-3.61,0-6.84.6-9.71,1.8-2.87,1.2-5.34,2.6-7.41,4.2-1.23.95-2.48,2.05-3.74,3.3-.05-.19-.1-.39-.16-.59-.54-1.94-2.04-3.71-4.51-5.31-2.47-1.6-6.64-2.4-12.51-2.4s-10.28.87-12.81,2.6c-2.54,1.74-4.08,3.97-4.61,6.71-.53,2.73-.8,5.64-.8,8.71v65.26c0,2.94.23,5.84.7,8.71.47,2.87,1.97,5.2,4.51,7,2.53,1.81,6.8,2.71,12.81,2.71s10.48-.87,13.01-2.61c2.54-1.73,4.07-4,4.61-6.8.53-2.8.8-5.67.8-8.61v-39.04c0-1.47.33-2.83,1-4.1.66-1.27,1.63-2.37,2.9-3.31,1.27-.93,2.74-1.63,4.41-2.1,1.66-.46,3.5-.7,5.5-.7,1.6,0,2.7.17,3.3.5.6.34,1.14.67,1.61,1,.46.34,1.23.67,2.3,1,1.06.34,2.87.5,5.4.5,4.67,0,8.44-2.33,11.31-7,2.87-4.67,4.31-10.34,4.31-17.02,0-2.53-.57-4.67-1.7-6.41-1.14-1.73-2.61-3.13-4.41-4.2Z"/>
  <path class="cls-1" d="M636.15,272.09c-2.48-1.8-6.71-2.7-12.72-2.7s-10.28.9-12.81,2.7c-2.54,1.8-4.07,4.07-4.6,6.81-.54,2.73-.8,5.57-.8,8.51v65.26c0,2.94.23,5.81.7,8.61.46,2.8,1.96,5.1,4.5,6.9,2.53,1.81,6.81,2.71,12.81,2.71s10.44-.87,12.92-2.61c2.46-1.73,3.96-4,4.5-6.8.53-2.8.8-5.67.8-8.61v-65.06c0-3.07-.27-6.01-.8-8.81-.54-2.81-2.04-5.11-4.5-6.91Z"/>
  <path class="cls-1" d="M734.14,323.44c-1.87-3.73-4.34-6.67-7.41-8.81-3.07-2.13-6.44-3.77-10.11-4.9-3.67-1.13-7.24-1.97-10.71-2.5-2.53-.41-4.9-.81-7.1-1.21-2.21-.4-4.14-.86-5.81-1.4-1.67-.53-3-1.23-4-2.1s-1.51-2.03-1.51-3.5c0-.8.27-1.5.81-2.1.53-.61,1.36-1.07,2.5-1.41,1.13-.33,2.5-.5,4.1-.5,2.8,0,5.61.6,8.41,1.8,2.8,1.21,5.47,2.41,8.01,3.61,2.53,1.2,4.87,1.8,7,1.8,1.74,0,3.44-.63,5.11-1.9,1.67-1.27,3.3-3.17,4.9-5.71,2.94-4.13,4.34-8.11,4.21-11.91-.14-3.8-2.67-6.77-7.61-8.91-2.4-1.06-4.77-2.03-7.11-2.9-2.33-.87-4.67-1.57-7-2.1-2.34-.53-4.64-.93-6.91-1.2s-4.54-.4-6.81-.4c-9.2,0-16.95,1.2-23.22,3.6-6.27,2.4-11.01,5.94-14.21,10.61-3.21,4.67-4.81,10.48-4.81,17.42,0,5.2.7,9.61,2.1,13.21,1.41,3.6,3.27,6.68,5.61,9.21,2.33,2.54,4.97,4.57,7.91,6.1,2.93,1.54,5.94,2.78,9.01,3.71,2.4.8,4.73,1.47,7,2,2.27.53,4.41,1,6.41,1.4,2,.4,3.77.84,5.3,1.3,1.54.47,2.74,1.04,3.61,1.7.87.67,1.3,1.54,1.3,2.61s-.63,1.87-1.9,2.4c-1.27.53-3.17.8-5.71.8-2.8,0-5.44-.5-7.9-1.5-2.48-1-4.84-2.13-7.11-3.4-2.27-1.27-4.54-2.41-6.81-3.41-2.27-1-4.6-1.5-7.01-1.5-1.73,0-3.23.34-4.5,1-1.27.67-2.37,1.67-3.3,3-1.6,2.28-2.94,4.41-4.01,6.41s-1.9,3.84-2.5,5.51c-.6,1.67-.9,3.17-.9,4.5,0,2.94,1.4,5.54,4.2,7.81,2.81,2.27,6.38,4.24,10.71,5.9,4.34,1.67,8.81,2.94,13.42,3.81,4.6.86,8.77,1.3,12.51,1.3,14.68,0,25.79-2.94,33.33-8.81,7.54-5.87,11.31-14.48,11.31-25.82,0-6.01-.93-10.88-2.8-14.62Z"/>
  <path class="cls-1" d="M215.5,261.74c2.27,1.33,4.74,2,7.41,2s4.84-.67,6.91-2c2.07-1.33,3.73-3.1,5-5.31,1.27-2.2,1.91-4.57,1.91-7.1,0-2.67-.64-5.07-1.91-7.21-1.27-2.13-2.97-3.87-5.1-5.2-2.14-1.34-4.54-2.01-7.21-2.01s-5.1.67-7.31,2.01c-2.2,1.33-3.97,3.1-5.3,5.3-1.34,2.2-2,4.64-2,7.31,0,2.53.7,4.87,2.1,7,1.4,2.14,3.23,3.88,5.5,5.21Z"/>
  <path class="cls-1" d="M114.79,261.74c2.27,1.33,4.74,2,7.41,2s4.84-.67,6.91-2c2.07-1.33,3.73-3.1,5-5.31,1.27-2.2,1.91-4.57,1.91-7.1,0-2.67-.64-5.07-1.91-7.21-1.27-2.13-2.97-3.87-5.1-5.2-2.14-1.34-4.54-2.01-7.21-2.01s-5.1.67-7.31,2.01c-2.2,1.33-3.97,3.1-5.3,5.3-1.34,2.2-2,4.64-2,7.31,0,2.53.7,4.87,2.1,7,1.4,2.14,3.23,3.88,5.5,5.21Z"/>
  <path class="cls-1" d="M615.4,259.18c2.27,1.33,4.74,2,7.41,2s4.84-.67,6.91-2c2.07-1.33,3.73-3.1,5-5.31,1.27-2.2,1.91-4.57,1.91-7.1,0-2.67-.64-5.07-1.91-7.21-1.27-2.13-2.97-3.87-5.1-5.2-2.14-1.34-4.54-2.01-7.21-2.01s-5.1.67-7.31,2.01c-2.2,1.33-3.97,3.1-5.3,5.3-1.34,2.2-2,4.64-2,7.31,0,2.53.7,4.87,2.1,7,1.4,2.14,3.23,3.88,5.5,5.21Z"/>
</svg>